#!OML:ASF F:\VICON\USERDATA\INSTALL\rory3\rory3.ASF
:FULLY-SPECIFIED
:DEGREES
1618
root -1.25593 13.5267 -4.71256 4.61726 1.72852 2.99033
lowerback 31.2534 0.138577 -2.79145
upperback 4.58453 -0.863566 -1.02345
thorax -11.1401 -0.300965 0.736786
lowerneck -17.188 -0.407183 -5.93231
upperneck -5.09884 0.518846 5.43105
head 1.30321 0.504656 2.87963
rclavicle 7.20594e-015 9.64106e-015
rhumerus -11.2633 -14.5628 -46.8399
rradius 90.1785
rwrist -30.4471
rhand -34.6525 7.35982
rfingers 7.12502
rthumb -7.80936 -22.476
lclavicle 7.20594e-015 9.64106e-015
lhumerus -10.6 3.76592 46.1875
lradius 84.0991
lwrist 8.61293
lhand -41.2439 7.09016
lfingers 7.12502
lthumb -14.1667 36.5871
rfemur -63.5188 -18.7845 8.50173
rtibia 100.095
rfoot -33.8607 -12.4545
rtoes -16.1612
lfemur -62.8365 16.1527 -18.625
ltibia 99.1692
lfoot -34.7574 10.6403
ltoes -13.7899
1619
root -1.24803 13.6554 -4.68336 4.58968 1.58574 3.15972
lowerback 30.753 0.116343 -2.84802
upperback 4.99031 -0.901885 -1.14939
thorax -11.2603 -0.321329 0.686956
lowerneck -17.3637 -0.37968 -5.84988
upperneck -5.02941 0.546529 5.446
head 1.35508 0.519597 2.87465
rclavicle 9.39258e-015 1.15295e-014
rhumerus -11.3606 -14.5381 -46.822
rradius 90.3328
rwrist -30.3117
rhand -34.997 7.65078
rfingers 7.12502
rthumb -8.14192 -22.1724
lclavicle 9.39258e-015 1.15295e-014
lhumerus -10.8835 3.98965 46.1525
lradius 84.2679
lwrist 8.53152
lhand -41.2177 7.40952
lfingers 7.12502
lthumb -14.1414 36.9083
rfemur -62.5559 -18.4216 8.21396
rtibia 98.9236
rfoot -33.7478 -12.3218
rtoes -15.515
lfemur -61.8086 15.9823 -18.7787
ltibia 97.9496
lfoot -34.6486 10.7367
ltoes -13.6418
1620
root -1.24276 13.7806 -4.65343 4.50958 1.44986 3.1988
lowerback 30.4435 0.117505 -2.88145
upperback 4.99244 -0.902666 -1.1703
thorax -11.1036 -0.323754 0.681011
lowerneck -17.582 -0.382509 -5.74231
upperneck -4.93308 0.53068 5.38679
head 1.42542 0.510607 2.83749
rclavicle 1.78906e-015 1.43125e-014
rhumerus -11.438 -14.5152 -46.773
rradius 90.5045
rwrist -30.1262
rhand -35.4116 7.93015
rfingers 7.12502
rthumb -8.54201 -21.8771
lclavicle 1.78906e-015 1.43125e-014
lhumerus -11.1865 4.18602 46.1665
lradius 84.4692
lwrist 8.38375
lhand -41.29 7.87263
lfingers 7.12502
lthumb -14.2111 37.3665
rfemur -61.5501 -18.0129 8.08802
rtibia 97.752
rfoot -33.6433 -12.2231
rtoes -14.9502
lfemur -60.7597 15.8961 -18.7556
ltibia 96.7484
lfoot -34.3648 10.8812
ltoes -13.7996
1621
root -1.23921 13.9035 -4.62719 4.44064 1.26069 3.20887
lowerback 30.1747 0.173724 -2.98497
upperback 4.95252 -0.849812 -1.1255
thorax -11.0149 -0.296581 0.770396
lowerneck -17.5541 -0.428847 -5.80036
upperneck -4.90798 0.476939 5.3936
head 1.43276 0.483819 2.84724
rclavicle 6.4605e-016 -5.96354e-015
rhumerus -11.4916 -14.4574 -46.6436
rradius 90.6001
rwrist -29.8059
rhand -35.6672 8.22509
rfingers 7.12502
rthumb -8.78868 -21.5719
lclavicle 6.4605e-016 -5.96354e-015
lhumerus -11.5886 4.39778 46.2176
lradius 84.7661
lwrist 8.66085
lhand -41.3901 7.88104
lfingers 7.12502
lthumb -14.3075 37.3681
rfemur -60.6419 -17.5522 8.05395
rtibia 96.5633
rfoot -33.3872 -12.3886
rtoes -14.8972
lfemur -59.7443 15.8791 -18.6757
ltibia 95.5527
lfoot -34.0228 10.8747
ltoes -13.923
1622
root -1.23448 14.0267 -4.60376 4.42422 1.06069 3.30263
lowerback 29.9608 0.213906 -3.16687
upperback 4.86511 -0.848925 -1.11162
thorax -11.0059 -0.289253 0.890021
lowerneck -17.5141 -0.445194 -5.67638
upperneck -4.94879 0.431537 5.23598
head 1.41251 0.453836 2.76498
rclavicle 5.31749e-015 -1.39149e-015
rhumerus -11.5735 -14.3425 -46.5411
rradius 90.7859
rwrist -29.7009
rhand -35.5063 7.94243
rfingers 7.12502
rthumb -8.63336 -21.861
lclavicle 5.31749e-015 -1.39149e-015
lhumerus -12.0289 4.64618 46.2138
lradius 85.0445
lwrist 8.8585
lhand -41.4663 7.91571
lfingers 7.12502
lthumb -14.381 37.3975
rfemur -59.8077 -17.1664 7.95128
rtibia 95.3487
rfoot -33.0565 -12.5503
rtoes -14.9808
lfemur -58.7891 15.7933 -18.7113
ltibia 94.3448
lfoot -33.7883 10.8029
ltoes -13.4682
1623
root -1.23199 14.1494 -4.58102 4.40434 0.878146 3.2716
lowerback 29.7268 0.225722 -3.23194
upperback 4.80123 -0.84452 -1.08889
thorax -10.9611 -0.285232 0.950638
lowerneck -17.6618 -0.432876 -5.49369
upperneck -4.87491 0.418784 5.11229
head 1.46169 0.442373 2.69019
rclavicle -1.14798e-014 -1.64991e-014
rhumerus -11.6658 -14.3253 -46.4963
rradius 91.007
rwrist -29.8542
rhand -34.9384 7.38216
rfingers 7.12502
rthumb -8.08531 -22.4432
lclavicle -1.14798e-014 -1.64991e-014
lhumerus -12.345 4.90059 46.2023
lradius 85.1925
lwrist 8.68576
lhand -41.2319 7.75271
lfingers 7.12502
lthumb -14.1551 37.2505
rfemur -58.9976 -16.6817 7.98641
rtibia 94.1232
rfoot -32.6537 -12.9147
rtoes -15.0222
lfemur -57.8619 15.7627 -18.6209
ltibia 93.14
lfoot -33.6034 10.6482
ltoes -12.6683
1624
root -1.22919 14.2729 -4.55229 4.32855 0.661743 3.14592
lowerback 29.4914 0.265231 -3.18227
upperback 4.71975 -0.768803 -1.05801
thorax -10.9402 -0.252185 0.927307
lowerneck -17.5702 -0.447902 -5.52751
upperneck -4.9068 0.399684 5.2279
head 1.43747 0.435409 2.73335
rclavicle -5.86415e-015 7.15625e-015
rhumerus -11.8383 -14.3331 -46.4097
rradius 91.0696
rwrist -29.768
rhand -34.7957 7.60632
rfingers 7.12502
rthumb -7.94754 -22.2243
lclavicle -5.86415e-015 7.15625e-015
lhumerus -12.6814 4.98428 46.2102
lradius 85.3602
lwrist 8.53912
lhand -41.1437 7.66731
lfingers 7.12502
lthumb -14.0701 37.171
rfemur -58.1283 -16.1047 8.10973
rtibia 92.8782
rfoot -32.1644 -13.4633
rtoes -15.1772
lfemur -56.835 15.8277 -18.4252
ltibia 91.9245
lfoot -33.3921 10.6589
ltoes -12.6349
1625
root -1.22488 14.3954 -4.52185 4.19828 0.502957 3.23247
lowerback 29.3476 0.297417 -3.26222
upperback 4.62339 -0.75335 -1.08439
thorax -10.9788 -0.241652 0.936957
lowerneck -17.5079 -0.461458 -5.55976
upperneck -4.8141 0.380861 5.26806
head 1.4599 0.426233 2.7524
rclavicle 2.38542e-015 3.67752e-015
rhumerus -12.0699 -14.2563 -46.2889
rradius 91.1376
rwrist -29.5628
rhand -35.1309 7.64752
rfingers 7.12502
rthumb -8.27109 -22.1706
lclavicle 2.38542e-015 3.67752e-015
lhumerus -13.0503 5.00798 46.2069
lradius 85.5542
lwrist 8.4542
lhand -41.3782 7.75903
lfingers 7.12502
lthumb -14.2961 37.2469
rfemur -57.0724 -15.7 7.9278
rtibia 91.6406
rfoot -31.9083 -13.5515
rtoes -14.9714
lfemur -55.7116 15.7598 -18.4591
ltibia 90.6852
lfoot -33.1629 10.7758
ltoes -12.7525
1626
root -1.22119 14.5151 -4.49243 4.1084 0.324383 3.34753
lowerback 29.0758 0.32842 -3.35892
upperback 4.58532 -0.743064 -1.16139
thorax -10.8856 -0.236561 0.90012
lowerneck -17.5616 -0.473193 -5.40727
upperneck -4.69197 0.33543 5.20731
head 1.51188 0.399664 2.70209
rclavicle 4.52235e-015 -6.26172e-015
rhumerus -12.3187 -14.2706 -46.2295
rradius 91.2954
rwrist -29.4688
rhand -35.2462 7.64097
rfingers 7.12502
rthumb -8.38239 -22.1727
lclavicle 4.52235e-015 -6.26172e-015
lhumerus -13.2601 5.09367 46.1186
lradius 85.7199
lwrist 8.49187
lhand -41.5012 7.72291
lfingers 7.12502
lthumb -14.4146 37.2023
rfemur -56.0177 -15.315 7.70528
rtibia 90.4271
rfoot -31.8711 -13.2491
rtoes -14.7147
lfemur -54.6582 15.7176 -18.5407
ltibia 89.4694
lfoot -32.8846 10.8372
ltoes -12.5704
1627
root -1.22245 14.6308 -4.46549 4.04646 0.153128 3.32061
lowerback 28.7281 0.357475 -3.38142
upperback 4.5884 -0.703129 -1.20425
thorax -10.7077 -0.221705 0.848367
lowerneck -17.5547 -0.49114 -5.19549
upperneck -4.73701 0.272583 5.14559
head 1.49704 0.363348 2.63602
rclavicle -2.23633e-015 -6.55989e-015
rhumerus -12.4578 -14.385 -46.2511
rradius 91.3996
rwrist -29.4033
rhand -35.3273 7.78826
rfingers 7.12502
rthumb -8.4606 -22.0223
lclavicle -2.23633e-015 -6.55989e-015
lhumerus -13.3718 5.25089 46.0247
lradius 85.8416
lwrist 8.46818
lhand -41.5635 7.60517
lfingers 7.12502
lthumb -14.4746 37.0803
rfemur -55.1275 -14.8637 7.7195
rtibia 89.2445
rfoot -31.6731 -13.272
rtoes -14.0819
lfemur -53.7147 15.7542 -18.4496
ltibia 88.2828
lfoot -32.4933 10.8945
ltoes -12.5215
1628
root -1.2266 14.7331 -4.44282 3.94908 0.149574 3.24573
lowerback 28.5828 0.330701 -3.33817
upperback 4.51617 -0.71992 -1.19912
thorax -10.717 -0.230396 0.834771
lowerneck -17.4728 -0.554124 -5.17862
upperneck -4.72369 0.179698 5.23897
head 1.49358 0.318059 2.65779
rclavicle 5.26779e-015 6.75868e-015
rhumerus -12.665 -14.4323 -46.2337
rradius 91.4778
rwrist -29.2829
rhand -35.44 7.6202
rfingers 7.12502
rthumb -8.56941 -22.1859
lclavicle 5.26779e-015 6.75868e-015
lhumerus -13.5732 5.32504 45.9555
lradius 85.9743
lwrist 8.38153
lhand -41.5186 7.66466
lfingers 7.12502
lthumb -14.4314 37.1429
rfemur -54.2993 -14.5624 7.82211
rtibia 88.1375
rfoot -31.3884 -13.5099
rtoes -12.9873
lfemur -52.8576 15.6603 -18.2628
ltibia 87.1739
lfoot -32.0561 10.913
ltoes -12.6888
1629
root -1.22883 14.8455 -4.42103 3.8784 0.255061 3.24979
lowerback 28.4 0.285463 -3.36214
upperback 4.44673 -0.774907 -1.16642
thorax -10.7009 -0.253882 0.904875
lowerneck -17.3503 -0.621036 -5.22563
upperneck -4.69422 0.0917758 5.30196
head 1.48844 0.274612 2.68117
rclavicle -3.47873e-016 7.25564e-015
rhumerus -12.9016 -14.4544 -46.0932
rradius 91.5836
rwrist -29.137
rhand -35.5011 7.23056
rfingers 7.12502
rthumb -8.62834 -22.5731
lclavicle -3.47873e-016 7.25564e-015
lhumerus -13.7504 5.46842 46.0075
lradius 86.1116
lwrist 8.30943
lhand -41.4008 7.55309
lfingers 7.12502
lthumb -14.3178 37.0394
rfemur -53.3516 -14.4232 7.82344
rtibia 86.9592
rfoot -31.14 -13.6357
rtoes -12.6251
lfemur -52.0019 15.4478 -18.1947
ltibia 86.0115
lfoot -31.6556 10.9847
ltoes -13.0487
1630
root -1.22959 14.9607 -4.39443 3.77364 0.23512 3.21335
lowerback 28.153 0.28993 -3.38065
upperback 4.4413 -0.760569 -1.13797
thorax -10.581 -0.248216 0.941353
lowerneck -17.3811 -0.668774 -5.21732
upperneck -4.6108 0.0248014 5.32616
head 1.52622 0.24175 2.68497
rclavicle 3.13086e-015 -6.16232e-015
rhumerus -13.0659 -14.5425 -45.9884
rradius 91.6826
rwrist -28.9501
rhand -35.827 7.17666
rfingers 7.12502
rthumb -8.94283 -22.6138
lclavicle 3.13086e-015 -6.16232e-015
lhumerus -13.7824 5.67954 46.0883
lradius 86.1468
lwrist 8.17465
lhand -41.5603 7.27981
lfingers 7.12502
lthumb -14.4715 36.7552
rfemur -52.3444 -14.133 7.83268
rtibia 85.7457
rfoot -30.8731 -13.6426
rtoes -12.3753
lfemur -51.0402 15.3441 -18.0781
ltibia 84.8454
lfoot -31.3596 10.9218
ltoes -12.8052
